{
	"asset":{
		"generator":"Khronos glTF Blender I/O v4.4.56",
		"version":"2.0"
	},
	"scene":0,
	"scenes":[
		{
			"name":"Scene",
			"nodes":[
				0,
				1,
				2,
				3,
				4,
				5,
				6,
				7,
				8,
				9,
				10,
				11,
				12,
				13,
				14,
				15,
				16
			]
		}
	],
	"nodes":[
		{
			"mesh":0,
			"name":"PROFILE_CQ216"
		},
		{
			"mesh":1,
			"name":"PROFILE_CQ212Z"
		},
		{
			"mesh":2,
			"name":"PROFILE_CQ212"
		},
		{
			"mesh":3,
			"name":"PROFILE_CQ220"
		},
		{
			"mesh":4,
			"name":"PROFILE_CQ225"
		},
		{
			"mesh":5,
			"name":"PROFILE_CQ216Z"
		},
		{
			"mesh":6,
			"name":"PROFILE_CQ220Z"
		},
		{
			"mesh":7,
			"name":"PROFILE_CQ225Z",
			"scale":[
				1.0099999904632568,
				1,
				1
			]
		},
		{
			"mesh":8,
			"name":"PROFILE_CQ232"
		},
		{
			"mesh":9,
			"name":"PROFILE_CQ240"
		},
		{
			"mesh":10,
			"name":"PROFILE_CQ250"
		},
		{
			"mesh":11,
			"name":"PROFILE_CQ263"
		},
		{
			"mesh":12,
			"name":"PROFILE_CQ280"
		},
		{
			"mesh":13,
			"name":"PROFILE_CQ2100"
		},
		{
			"mesh":14,
			"name":"PROFILE_CQ204"
		},
		{
			"mesh":15,
			"name":"PROFILE_CQ206"
		},
		{
			"mesh":16,
			"name":"PROFILE_CQ210"
		}
	],
	"materials":[
		{
			"doubleSided":true,
			"name":"ALUMINUM"
		}
	],
	"meshes":[
		{
			"name":"Cube.16",
			"primitives":[
				{
					"attributes":{
						"POSITION":0,
						"NORMAL":1,
						"TEXCOORD_0":2
					},
					"indices":3,
					"material":0
				}
			]
		},
		{
			"name":"Cube.12Z",
			"primitives":[
				{
					"attributes":{
						"POSITION":4,
						"NORMAL":5,
						"TEXCOORD_0":6
					},
					"indices":7,
					"material":0
				}
			]
		},
		{
			"name":"Cube.12",
			"primitives":[
				{
					"attributes":{
						"POSITION":8,
						"NORMAL":9,
						"TEXCOORD_0":10
					},
					"indices":11,
					"material":0
				}
			]
		},
		{
			"name":"Cube.20",
			"primitives":[
				{
					"attributes":{
						"POSITION":12,
						"NORMAL":13,
						"TEXCOORD_0":14
					},
					"indices":15,
					"material":0
				}
			]
		},
		{
			"name":"Cube.25",
			"primitives":[
				{
					"attributes":{
						"POSITION":16,
						"NORMAL":17,
						"TEXCOORD_0":18
					},
					"indices":19,
					"material":0
				}
			]
		},
		{
			"name":"Cube.16Z",
			"primitives":[
				{
					"attributes":{
						"POSITION":20,
						"NORMAL":21,
						"TEXCOORD_0":22
					},
					"indices":23,
					"material":0
				}
			]
		},
		{
			"name":"Cube.20Z",
			"primitives":[
				{
					"attributes":{
						"POSITION":24,
						"NORMAL":25,
						"TEXCOORD_0":26,
						"TEXCOORD_1":27
					},
					"indices":28,
					"material":0
				}
			]
		},
		{
			"name":"Cube.25Z",
			"primitives":[
				{
					"attributes":{
						"POSITION":29,
						"NORMAL":30,
						"TEXCOORD_0":31
					},
					"indices":32,
					"material":0
				}
			]
		},
		{
			"name":"Cube.32",
			"primitives":[
				{
					"attributes":{
						"POSITION":33,
						"NORMAL":34,
						"TEXCOORD_0":35
					},
					"indices":36,
					"material":0
				}
			]
		},
		{
			"name":"Cube.40",
			"primitives":[
				{
					"attributes":{
						"POSITION":37,
						"NORMAL":38,
						"TEXCOORD_0":39
					},
					"indices":40,
					"material":0
				}
			]
		},
		{
			"name":"Cube.50",
			"primitives":[
				{
					"attributes":{
						"POSITION":41,
						"NORMAL":42,
						"TEXCOORD_0":43
					},
					"indices":44,
					"material":0
				}
			]
		},
		{
			"name":"Cube.63",
			"primitives":[
				{
					"attributes":{
						"POSITION":45,
						"NORMAL":46,
						"TEXCOORD_0":47
					},
					"indices":48,
					"material":0
				}
			]
		},
		{
			"name":"Cube.80",
			"primitives":[
				{
					"attributes":{
						"POSITION":49,
						"NORMAL":50,
						"TEXCOORD_0":51,
						"TEXCOORD_1":52
					},
					"indices":53,
					"material":0
				}
			]
		},
		{
			"name":"Cube.100",
			"primitives":[
				{
					"attributes":{
						"POSITION":54,
						"NORMAL":55,
						"TEXCOORD_0":56,
						"TEXCOORD_1":57
					},
					"indices":58,
					"material":0
				}
			]
		},
		{
			"name":"Cube.04",
			"primitives":[
				{
					"attributes":{
						"POSITION":59,
						"NORMAL":60,
						"TEXCOORD_0":61
					},
					"indices":62,
					"material":0
				}
			]
		},
		{
			"name":"Cube.06",
			"primitives":[
				{
					"attributes":{
						"POSITION":63,
						"NORMAL":64,
						"TEXCOORD_0":65
					},
					"indices":66,
					"material":0
				}
			]
		},
		{
			"name":"Cube.10",
			"primitives":[
				{
					"attributes":{
						"POSITION":67,
						"NORMAL":68,
						"TEXCOORD_0":69
					},
					"indices":70,
					"material":0
				}
			]
		}
	],
	"accessors":[
		{
			"bufferView":0,
			"componentType":5126,
			"count":704,
			"max":[
				0.014500000514090061,
				0.014500000514090061,
				0.0005000000237487257
			],
			"min":[
				-0.014500000514090061,
				-0.014500000514090061,
				-0.0005000000237487257
			],
			"type":"VEC3"
		},
		{
			"bufferView":1,
			"componentType":5126,
			"count":704,
			"type":"VEC3"
		},
		{
			"bufferView":2,
			"componentType":5126,
			"count":704,
			"type":"VEC2"
		},
		{
			"bufferView":3,
			"componentType":5123,
			"count":1956,
			"type":"SCALAR"
		},
		{
			"bufferView":4,
			"componentType":5126,
			"count":750,
			"max":[
				0.016435030847787857,
				0.014000000432133675,
				0.0005000000237487257
			],
			"min":[
				-0.016435030847787857,
				-0.012996623292565346,
				-0.0005000000237487257
			],
			"type":"VEC3"
		},
		{
			"bufferView":5,
			"componentType":5126,
			"count":750,
			"type":"VEC3"
		},
		{
			"bufferView":6,
			"componentType":5126,
			"count":750,
			"type":"VEC2"
		},
		{
			"bufferView":7,
			"componentType":5123,
			"count":2112,
			"type":"SCALAR"
		},
		{
			"bufferView":8,
			"componentType":5126,
			"count":416,
			"max":[
				0.012500000186264515,
				0.012500000186264515,
				0.0005000000237487257
			],
			"min":[
				-0.012500000186264515,
				-0.012500000186264515,
				-0.0005000000237487257
			],
			"type":"VEC3"
		},
		{
			"bufferView":9,
			"componentType":5126,
			"count":416,
			"type":"VEC3"
		},
		{
			"bufferView":10,
			"componentType":5126,
			"count":416,
			"type":"VEC2"
		},
		{
			"bufferView":11,
			"componentType":5123,
			"count":1140,
			"type":"SCALAR"
		},
		{
			"bufferView":12,
			"componentType":5126,
			"count":480,
			"max":[
				0.018000001087784767,
				0.018000001087784767,
				0.0005000000237487257
			],
			"min":[
				-0.018000001087784767,
				-0.018000001087784767,
				-0.0005000000237487257
			],
			"type":"VEC3"
		},
		{
			"bufferView":13,
			"componentType":5126,
			"count":480,
			"type":"VEC3"
		},
		{
			"bufferView":14,
			"componentType":5126,
			"count":480,
			"type":"VEC2"
		},
		{
			"bufferView":15,
			"componentType":5123,
			"count":1284,
			"type":"SCALAR"
		},
		{
			"bufferView":16,
			"componentType":5126,
			"count":472,
			"max":[
				0.020000001415610313,
				0.019999999552965164,
				0.0005000000237487257
			],
			"min":[
				-0.020000001415610313,
				-0.020000001415610313,
				-0.0005000000237487257
			],
			"type":"VEC3"
		},
		{
			"bufferView":17,
			"componentType":5126,
			"count":472,
			"type":"VEC3"
		},
		{
			"bufferView":18,
			"componentType":5126,
			"count":472,
			"type":"VEC2"
		},
		{
			"bufferView":19,
			"componentType":5123,
			"count":1260,
			"type":"SCALAR"
		},
		{
			"bufferView":20,
			"componentType":5126,
			"count":750,
			"max":[
				0.018435027450323105,
				0.01499741431325674,
				0.0005000000237487257
			],
			"min":[
				-0.018435027450323105,
				-0.01419870276004076,
				-0.0005000000237487257
			],
			"type":"VEC3"
		},
		{
			"bufferView":21,
			"componentType":5126,
			"count":750,
			"type":"VEC3"
		},
		{
			"bufferView":22,
			"componentType":5126,
			"count":750,
			"type":"VEC2"
		},
		{
			"bufferView":23,
			"componentType":5123,
			"count":2088,
			"type":"SCALAR"
		},
		{
			"bufferView":24,
			"componentType":5126,
			"count":854,
			"max":[
				0.023384777829051018,
				0.017698563635349274,
				0.0005000000237487257
			],
			"min":[
				-0.023384777829051018,
				-0.017302904278039932,
				-0.0005000000237487257
			],
			"type":"VEC3"
		},
		{
			"bufferView":25,
			"componentType":5126,
			"count":854,
			"type":"VEC3"
		},
		{
			"bufferView":26,
			"componentType":5126,
			"count":854,
			"type":"VEC2"
		},
		{
			"bufferView":27,
			"componentType":5126,
			"count":854,
			"type":"VEC2"
		},
		{
			"bufferView":28,
			"componentType":5123,
			"count":2244,
			"type":"SCALAR"
		},
		{
			"bufferView":29,
			"componentType":5126,
			"count":834,
			"max":[
				0.025798989459872246,
				0.020597700029611588,
				0.0005000000237487257
			],
			"min":[
				-0.025798989459872246,
				-0.019798990339040756,
				-0.0005000000237487257
			],
			"type":"VEC3"
		},
		{
			"bufferView":30,
			"componentType":5126,
			"count":834,
			"type":"VEC3"
		},
		{
			"bufferView":31,
			"componentType":5126,
			"count":834,
			"type":"VEC2"
		},
		{
			"bufferView":32,
			"componentType":5123,
			"count":2340,
			"type":"SCALAR"
		},
		{
			"bufferView":33,
			"componentType":5126,
			"count":1844,
			"max":[
				0.02250000089406967,
				0.027000000700354576,
				0.0005000000237487257
			],
			"min":[
				-0.02250000089406967,
				-0.02250000089406967,
				-0.0005000000237487257
			],
			"type":"VEC3"
		},
		{
			"bufferView":34,
			"componentType":5126,
			"count":1844,
			"type":"VEC3"
		},
		{
			"bufferView":35,
			"componentType":5126,
			"count":1844,
			"type":"VEC2"
		},
		{
			"bufferView":36,
			"componentType":5123,
			"count":4620,
			"type":"SCALAR"
		},
		{
			"bufferView":37,
			"componentType":5126,
			"count":1846,
			"max":[
				0.026000000536441803,
				0.03100000135600567,
				0.0005000000237487257
			],
			"min":[
				-0.026000000536441803,
				-0.026000000536441803,
				-0.0005000000237487257
			],
			"type":"VEC3"
		},
		{
			"bufferView":38,
			"componentType":5126,
			"count":1846,
			"type":"VEC3"
		},
		{
			"bufferView":39,
			"componentType":5126,
			"count":1846,
			"type":"VEC2"
		},
		{
			"bufferView":40,
			"componentType":5123,
			"count":4626,
			"type":"SCALAR"
		},
		{
			"bufferView":41,
			"componentType":5126,
			"count":1820,
			"max":[
				0.03200000151991844,
				0.039000000804662704,
				0.0005000000237487257
			],
			"min":[
				-0.03200000151991844,
				-0.03200000151991844,
				-0.0005000000237487257
			],
			"type":"VEC3"
		},
		{
			"bufferView":42,
			"componentType":5126,
			"count":1820,
			"type":"VEC3"
		},
		{
			"bufferView":43,
			"componentType":5126,
			"count":1820,
			"type":"VEC2"
		},
		{
			"bufferView":44,
			"componentType":5123,
			"count":4548,
			"type":"SCALAR"
		},
		{
			"bufferView":45,
			"componentType":5126,
			"count":1932,
			"max":[
				0.03850000351667404,
				0.045500002801418304,
				0.0005000000237487257
			],
			"min":[
				-0.03850000351667404,
				-0.03850000351667404,
				-0.0005000000237487257
			],
			"type":"VEC3"
		},
		{
			"bufferView":46,
			"componentType":5126,
			"count":1932,
			"type":"VEC3"
		},
		{
			"bufferView":47,
			"componentType":5126,
			"count":1932,
			"type":"VEC2"
		},
		{
			"bufferView":48,
			"componentType":5123,
			"count":4812,
			"type":"SCALAR"
		},
		{
			"bufferView":49,
			"componentType":5126,
			"count":2008,
			"max":[
				0.04899999871850014,
				0.055000003427267075,
				0.0005000000237487257
			],
			"min":[
				-0.04899999871850014,
				-0.04899999871850014,
				-0.0005000000237487257
			],
			"type":"VEC3"
		},
		{
			"bufferView":50,
			"componentType":5126,
			"count":2008,
			"type":"VEC3"
		},
		{
			"bufferView":51,
			"componentType":5126,
			"count":2008,
			"type":"VEC2"
		},
		{
			"bufferView":52,
			"componentType":5126,
			"count":2008,
			"type":"VEC2"
		},
		{
			"bufferView":53,
			"componentType":5123,
			"count":4836,
			"type":"SCALAR"
		},
		{
			"bufferView":54,
			"componentType":5126,
			"count":2146,
			"max":[
				0.05849999934434891,
				0.0650000050663948,
				0.0005000000237487257
			],
			"min":[
				-0.05849999934434891,
				-0.05849999934434891,
				-0.0005000000237487257
			],
			"type":"VEC3"
		},
		{
			"bufferView":55,
			"componentType":5126,
			"count":2146,
			"type":"VEC3"
		},
		{
			"bufferView":56,
			"componentType":5126,
			"count":2146,
			"type":"VEC2"
		},
		{
			"bufferView":57,
			"componentType":5126,
			"count":2146,
			"type":"VEC2"
		},
		{
			"bufferView":58,
			"componentType":5123,
			"count":5232,
			"type":"SCALAR"
		},
		{
			"bufferView":59,
			"componentType":5126,
			"count":326,
			"max":[
				0.007500000298023224,
				0.007500000298023224,
				0.0005000000237487257
			],
			"min":[
				-0.007500000298023224,
				-0.007500000298023224,
				-0.0005000000237487257
			],
			"type":"VEC3"
		},
		{
			"bufferView":60,
			"componentType":5126,
			"count":326,
			"type":"VEC3"
		},
		{
			"bufferView":61,
			"componentType":5126,
			"count":326,
			"type":"VEC2"
		},
		{
			"bufferView":62,
			"componentType":5123,
			"count":894,
			"type":"SCALAR"
		},
		{
			"bufferView":63,
			"componentType":5126,
			"count":937,
			"max":[
				0.00950000062584877,
				0.009500004351139069,
				0.0005000000237487257
			],
			"min":[
				-0.00950000062584877,
				-0.00950000062584877,
				-0.0005000000237487257
			],
			"type":"VEC3"
		},
		{
			"bufferView":64,
			"componentType":5126,
			"count":937,
			"type":"VEC3"
		},
		{
			"bufferView":65,
			"componentType":5126,
			"count":937,
			"type":"VEC2"
		},
		{
			"bufferView":66,
			"componentType":5123,
			"count":2736,
			"type":"SCALAR"
		},
		{
			"bufferView":67,
			"componentType":5126,
			"count":632,
			"max":[
				0.010499999858438969,
				0.010499999858438969,
				0.0005000000237487257
			],
			"min":[
				-0.010499999858438969,
				-0.010500000789761543,
				-0.0005000000237487257
			],
			"type":"VEC3"
		},
		{
			"bufferView":68,
			"componentType":5126,
			"count":632,
			"type":"VEC3"
		},
		{
			"bufferView":69,
			"componentType":5126,
			"count":632,
			"type":"VEC2"
		},
		{
			"bufferView":70,
			"componentType":5123,
			"count":1764,
			"type":"SCALAR"
		}
	],
	"bufferViews":[
		{
			"buffer":0,
			"byteLength":8448,
			"byteOffset":0,
			"target":34962
		},
		{
			"buffer":0,
			"byteLength":8448,
			"byteOffset":8448,
			"target":34962
		},
		{
			"buffer":0,
			"byteLength":5632,
			"byteOffset":16896,
			"target":34962
		},
		{
			"buffer":0,
			"byteLength":3912,
			"byteOffset":22528,
			"target":34963
		},
		{
			"buffer":0,
			"byteLength":9000,
			"byteOffset":26440,
			"target":34962
		},
		{
			"buffer":0,
			"byteLength":9000,
			"byteOffset":35440,
			"target":34962
		},
		{
			"buffer":0,
			"byteLength":6000,
			"byteOffset":44440,
			"target":34962
		},
		{
			"buffer":0,
			"byteLength":4224,
			"byteOffset":50440,
			"target":34963
		},
		{
			"buffer":0,
			"byteLength":4992,
			"byteOffset":54664,
			"target":34962
		},
		{
			"buffer":0,
			"byteLength":4992,
			"byteOffset":59656,
			"target":34962
		},
		{
			"buffer":0,
			"byteLength":3328,
			"byteOffset":64648,
			"target":34962
		},
		{
			"buffer":0,
			"byteLength":2280,
			"byteOffset":67976,
			"target":34963
		},
		{
			"buffer":0,
			"byteLength":5760,
			"byteOffset":70256,
			"target":34962
		},
		{
			"buffer":0,
			"byteLength":5760,
			"byteOffset":76016,
			"target":34962
		},
		{
			"buffer":0,
			"byteLength":3840,
			"byteOffset":81776,
			"target":34962
		},
		{
			"buffer":0,
			"byteLength":2568,
			"byteOffset":85616,
			"target":34963
		},
		{
			"buffer":0,
			"byteLength":5664,
			"byteOffset":88184,
			"target":34962
		},
		{
			"buffer":0,
			"byteLength":5664,
			"byteOffset":93848,
			"target":34962
		},
		{
			"buffer":0,
			"byteLength":3776,
			"byteOffset":99512,
			"target":34962
		},
		{
			"buffer":0,
			"byteLength":2520,
			"byteOffset":103288,
			"target":34963
		},
		{
			"buffer":0,
			"byteLength":9000,
			"byteOffset":105808,
			"target":34962
		},
		{
			"buffer":0,
			"byteLength":9000,
			"byteOffset":114808,
			"target":34962
		},
		{
			"buffer":0,
			"byteLength":6000,
			"byteOffset":123808,
			"target":34962
		},
		{
			"buffer":0,
			"byteLength":4176,
			"byteOffset":129808,
			"target":34963
		},
		{
			"buffer":0,
			"byteLength":10248,
			"byteOffset":133984,
			"target":34962
		},
		{
			"buffer":0,
			"byteLength":10248,
			"byteOffset":144232,
			"target":34962
		},
		{
			"buffer":0,
			"byteLength":6832,
			"byteOffset":154480,
			"target":34962
		},
		{
			"buffer":0,
			"byteLength":6832,
			"byteOffset":161312,
			"target":34962
		},
		{
			"buffer":0,
			"byteLength":4488,
			"byteOffset":168144,
			"target":34963
		},
		{
			"buffer":0,
			"byteLength":10008,
			"byteOffset":172632,
			"target":34962
		},
		{
			"buffer":0,
			"byteLength":10008,
			"byteOffset":182640,
			"target":34962
		},
		{
			"buffer":0,
			"byteLength":6672,
			"byteOffset":192648,
			"target":34962
		},
		{
			"buffer":0,
			"byteLength":4680,
			"byteOffset":199320,
			"target":34963
		},
		{
			"buffer":0,
			"byteLength":22128,
			"byteOffset":204000,
			"target":34962
		},
		{
			"buffer":0,
			"byteLength":22128,
			"byteOffset":226128,
			"target":34962
		},
		{
			"buffer":0,
			"byteLength":14752,
			"byteOffset":248256,
			"target":34962
		},
		{
			"buffer":0,
			"byteLength":9240,
			"byteOffset":263008,
			"target":34963
		},
		{
			"buffer":0,
			"byteLength":22152,
			"byteOffset":272248,
			"target":34962
		},
		{
			"buffer":0,
			"byteLength":22152,
			"byteOffset":294400,
			"target":34962
		},
		{
			"buffer":0,
			"byteLength":14768,
			"byteOffset":316552,
			"target":34962
		},
		{
			"buffer":0,
			"byteLength":9252,
			"byteOffset":331320,
			"target":34963
		},
		{
			"buffer":0,
			"byteLength":21840,
			"byteOffset":340572,
			"target":34962
		},
		{
			"buffer":0,
			"byteLength":21840,
			"byteOffset":362412,
			"target":34962
		},
		{
			"buffer":0,
			"byteLength":14560,
			"byteOffset":384252,
			"target":34962
		},
		{
			"buffer":0,
			"byteLength":9096,
			"byteOffset":398812,
			"target":34963
		},
		{
			"buffer":0,
			"byteLength":23184,
			"byteOffset":407908,
			"target":34962
		},
		{
			"buffer":0,
			"byteLength":23184,
			"byteOffset":431092,
			"target":34962
		},
		{
			"buffer":0,
			"byteLength":15456,
			"byteOffset":454276,
			"target":34962
		},
		{
			"buffer":0,
			"byteLength":9624,
			"byteOffset":469732,
			"target":34963
		},
		{
			"buffer":0,
			"byteLength":24096,
			"byteOffset":479356,
			"target":34962
		},
		{
			"buffer":0,
			"byteLength":24096,
			"byteOffset":503452,
			"target":34962
		},
		{
			"buffer":0,
			"byteLength":16064,
			"byteOffset":527548,
			"target":34962
		},
		{
			"buffer":0,
			"byteLength":16064,
			"byteOffset":543612,
			"target":34962
		},
		{
			"buffer":0,
			"byteLength":9672,
			"byteOffset":559676,
			"target":34963
		},
		{
			"buffer":0,
			"byteLength":25752,
			"byteOffset":569348,
			"target":34962
		},
		{
			"buffer":0,
			"byteLength":25752,
			"byteOffset":595100,
			"target":34962
		},
		{
			"buffer":0,
			"byteLength":17168,
			"byteOffset":620852,
			"target":34962
		},
		{
			"buffer":0,
			"byteLength":17168,
			"byteOffset":638020,
			"target":34962
		},
		{
			"buffer":0,
			"byteLength":10464,
			"byteOffset":655188,
			"target":34963
		},
		{
			"buffer":0,
			"byteLength":3912,
			"byteOffset":665652,
			"target":34962
		},
		{
			"buffer":0,
			"byteLength":3912,
			"byteOffset":669564,
			"target":34962
		},
		{
			"buffer":0,
			"byteLength":2608,
			"byteOffset":673476,
			"target":34962
		},
		{
			"buffer":0,
			"byteLength":1788,
			"byteOffset":676084,
			"target":34963
		},
		{
			"buffer":0,
			"byteLength":11244,
			"byteOffset":677872,
			"target":34962
		},
		{
			"buffer":0,
			"byteLength":11244,
			"byteOffset":689116,
			"target":34962
		},
		{
			"buffer":0,
			"byteLength":7496,
			"byteOffset":700360,
			"target":34962
		},
		{
			"buffer":0,
			"byteLength":5472,
			"byteOffset":707856,
			"target":34963
		},
		{
			"buffer":0,
			"byteLength":7584,
			"byteOffset":713328,
			"target":34962
		},
		{
			"buffer":0,
			"byteLength":7584,
			"byteOffset":720912,
			"target":34962
		},
		{
			"buffer":0,
			"byteLength":5056,
			"byteOffset":728496,
			"target":34962
		},
		{
			"buffer":0,
			"byteLength":3528,
			"byteOffset":733552,
			"target":34963
		}
	],
	"buffers":[
		{
			"byteLength":737080,
			"uri":"CQ2.bin"
		}
	]
}
